<svg width="19" height="21" viewBox="0 0 19 21" fill="none" xmlns="http://www.w3.org/2000/svg">
<path fill-rule="evenodd" clip-rule="evenodd" d="M8.25 0.5C8.01792 0.500124 7.79046 0.564854 7.59309 0.68694C7.39572 0.809027 7.23624 0.983649 7.1325 1.19125L6.2275 3H2C1.66848 3 1.35054 3.1317 1.11612 3.36612C0.881696 3.60054 0.75 3.91848 0.75 4.25C0.75 4.58152 0.881696 4.89946 1.11612 5.13388C1.35054 5.3683 1.66848 5.5 2 5.5V18C2 18.663 2.26339 19.2989 2.73223 19.7678C3.20107 20.2366 3.83696 20.5 4.5 20.5H14.5C15.163 20.5 15.7989 20.2366 16.2678 19.7678C16.7366 19.2989 17 18.663 17 18V5.5C17.3315 5.5 17.6495 5.3683 17.8839 5.13388C18.1183 4.89946 18.25 4.58152 18.25 4.25C18.25 3.91848 18.1183 3.60054 17.8839 3.36612C17.6495 3.1317 17.3315 3 17 3H12.7725L11.8675 1.19125C11.7638 0.983649 11.6043 0.809027 11.4069 0.68694C11.2095 0.564854 10.9821 0.500124 10.75 0.5H8.25ZM5.75 8C5.75 7.66848 5.8817 7.35054 6.11612 7.11612C6.35054 6.8817 6.66848 6.75 7 6.75C7.33152 6.75 7.64946 6.8817 7.88388 7.11612C8.1183 7.35054 8.25 7.66848 8.25 8V15.5C8.25 15.8315 8.1183 16.1495 7.88388 16.3839C7.64946 16.6183 7.33152 16.75 7 16.75C6.66848 16.75 6.35054 16.6183 6.11612 16.3839C5.8817 16.1495 5.75 15.8315 5.75 15.5V8ZM12 6.75C11.6685 6.75 11.3505 6.8817 11.1161 7.11612C10.8817 7.35054 10.75 7.66848 10.75 8V15.5C10.75 15.8315 10.8817 16.1495 11.1161 16.3839C11.3505 16.6183 11.6685 16.75 12 16.75C12.3315 16.75 12.6495 16.6183 12.8839 16.3839C13.1183 16.1495 13.25 15.8315 13.25 15.5V8C13.25 7.66848 13.1183 7.35054 12.8839 7.11612C12.6495 6.8817 12.3315 6.75 12 6.75Z" fill="black"/>
</svg>
