<svg width="19" height="18" viewBox="0 0 19 18" fill="none" xmlns="http://www.w3.org/2000/svg">
<path d="M13.9825 0.76322C14.2131 0.524445 14.489 0.333989 14.794 0.202967C15.099 0.0719444 15.427 0.00297893 15.759 9.43918e-05C16.0909 -0.00279015 16.4201 0.0604642 16.7274 0.186166C17.0346 0.311869 17.3138 0.497501 17.5485 0.732233C17.7832 0.966965 17.9689 1.24609 18.0946 1.55334C18.2203 1.86058 18.2835 2.18978 18.2806 2.52172C18.2777 2.85367 18.2088 3.18172 18.0778 3.48673C17.9467 3.79174 17.7563 4.0676 17.5175 4.29822L16.5263 5.28947L12.9913 1.75447L13.9825 0.76322V0.76322ZM11.2238 3.52197L0.75 13.9957V17.5307H4.285L14.76 7.05697L11.2225 3.52197H11.2238Z" fill="black"/>
</svg>
